<?xml version="1.0" standalone="no"?>
<!DOCTYPE svg PUBLIC "-//W3C//DTD SVG 20010904//EN"
 "http://www.w3.org/TR/2001/REC-SVG-20010904/DTD/svg10.dtd">
<svg version="1.0" xmlns="http://www.w3.org/2000/svg"
 width="512.000000pt" height="512.000000pt" viewBox="0 0 512.000000 512.000000"
 preserveAspectRatio="xMidYMid meet">
<metadata>
Created by potrace 1.14, written by Peter Selinger 2001-2017
</metadata>
<g transform="translate(0.000000,512.000000) scale(0.100000,-0.100000)"
fill="#000000" stroke="none">
<path d="M3300 4435 c-261 -13 -574 -28 -695 -34 -188 -9 -238 -15 -340 -40
-257 -64 -540 -176 -870 -345 -263 -134 -637 -359 -672 -404 -10 -12 -13 -139
-13 -557 0 -637 -15 -573 137 -586 109 -9 123 -12 244 -40 76 -18 96 -28 171
-84 115 -87 330 -287 517 -482 85 -89 173 -172 195 -184 61 -34 156 -32 219 4
26 16 54 39 63 52 l16 25 32 -27 c157 -132 328 -30 705 421 46 54 116 143 157
198 68 91 74 103 74 147 0 129 -65 362 -158 566 -27 61 -49 111 -48 112 1 1
233 -72 516 -162 533 -171 566 -178 651 -155 50 14 103 58 156 130 47 63 61
111 49 172 -13 73 -39 89 -371 234 -276 120 -304 135 -255 130 30 -3 139 -9
242 -12 219 -8 251 -1 316 70 47 51 62 96 62 184 0 73 -18 115 -59 136 -15 8
-191 43 -391 78 l-362 63 130 21 c171 29 222 55 264 137 44 87 30 193 -31 234
-41 28 -16 28 -651 -2z m-818 -1580 c19 -13 52 -46 72 -73 38 -53 116 -199
116 -219 0 -6 -88 -138 -196 -292 l-196 -280 -40 57 c-164 235 -290 452 -290
497 0 74 196 244 360 311 75 31 127 31 174 -1z"/>
<path d="M3735 2305 c-35 -34 -32 -68 10 -114 l35 -38 -21 -19 c-70 -64 -55
-154 26 -154 24 0 45 9 70 31 l36 32 32 -32 c89 -86 192 17 106 106 l-32 32
32 36 c22 25 31 46 31 70 0 81 -90 96 -154 26 l-19 -21 -38 35 c-46 42 -80 45
-114 10z"/>
<path d="M2343 1563 c-55 -10 -72 -97 -27 -132 56 -44 124 -10 124 61 0 51
-42 81 -97 71z"/>
<path d="M3645 1449 c-134 -50 -183 -214 -98 -328 31 -40 114 -81 166 -81 77
0 154 51 188 125 42 91 7 212 -75 260 -51 30 -134 41 -181 24z m112 -161 c28
-26 29 -48 5 -78 -35 -43 -112 -15 -112 41 0 26 35 59 62 59 12 0 32 -10 45
-22z"/>
<path d="M2047 1348 c-21 -17 -38 -63 -30 -85 13 -37 36 -53 75 -53 71 0 102
67 57 124 -23 29 -73 36 -102 14z"/>
<path d="M1831 1194 c-28 -35 -26 -69 4 -99 30 -31 66 -32 101 -2 32 28 36 78
8 108 -27 30 -87 26 -113 -7z"/>
<path d="M2310 1200 c-46 -46 -9 -130 58 -130 43 0 72 30 72 75 0 22 -8 43
-20 55 -12 12 -33 20 -55 20 -22 0 -43 -8 -55 -20z"/>
<path d="M2650 1200 c-28 -28 -26 -81 3 -108 30 -28 80 -29 107 -2 26 26 27
90 2 113 -26 24 -87 22 -112 -3z"/>
<path d="M2046 1069 c-67 -53 -1 -164 77 -128 49 22 61 86 22 124 -30 30 -64
32 -99 4z"/>
<path d="M2452 927 c-47 -50 -15 -127 52 -127 39 0 76 37 76 75 0 65 -84 99
-128 52z"/>
<path d="M1712 873 c-7 -3 -19 -18 -28 -35 -13 -25 -13 -35 -3 -59 32 -79 143
-59 143 26 0 57 -55 91 -112 68z"/>
<path d="M2792 857 c-67 -72 34 -172 103 -102 14 13 25 36 25 50 0 35 -42 75
-78 75 -17 0 -37 -9 -50 -23z"/>
<path d="M2113 795 c-54 -38 -23 -134 44 -135 35 0 53 11 69 42 37 72 -45 141
-113 93z"/>
</g>
</svg>
